{"title":"Space Station 76(2014)MPEG-4[DaScubaDude]","uid":14532834,"size":946684644,"categoryP":"video","categoryS":"movies","magnet":"?xt=urn:btih:029058f2bede66eedea78c599ca64c95fa05a393&amp;dn=Space+Station+76%282014%29MPEG-4%5BDaScubaDude%5D&amp;tr=udp%3A%2F%2Ftracker.leechers-paradise.org%3A6969&amp;tr=udp%3A%2F%2Fzer0day.ch%3A1337&amp;tr=udp%3A%2F%2Fopen.demonii.com%3A1337&amp;tr=udp%3A%2F%2Ftracker.coppersurfer.tk%3A6969&amp;tr=udp%3A%2F%2Fexodus.desync.com%3A6969","seeders":0,"leechers":1,"uploader":"dascuba","files":1,"time":1462463703,"description":"Space Station 76 (2014)\r\nR | 1h 33min | Comedy, Drama, Sci-Fi | 8 March 2014 (USA)\r\nA 1970s version of the future, where personalities and asteroids collide.\r\nDirector: Jack Plotnick\r\nWriters: Jennifer Elise Cox (screenplay), Sam Pancake (screenplay) | \r\nStars: Patrick Wilson, Liv Tyler, Marisa Coughlan |\r\n\r\nGeneral\r\nComplete name                            : SpaceStation76SPACE_STATION_76_Title2.mp4\r\nFormat                                   : MPEG-4\r\nFormat profile                           : Base Media\r\nCodec ID                                 : isom (isom/iso2/avc1/mp41)\r\nFile size                                : 903 MiB\r\nDuration                                 : 1h 34mn\r\nOverall bit rate                         : 1 332 Kbps\r\nMovie name                               : SPACE_STATION_76\r\nGenre                                    : Science_Fiction\r\nWriting application                      : Lavf54.6.100\r\n\r\nVideo\r\nID                                       : 1\r\nFormat                                   : AVC\r\nFormat/Info                              : Advanced Video Codec\r\nFormat profile                           :   \r\nFormat settings, CABAC                   : No\r\nFormat settings, ReFrames                : 6 frames\r\nCodec ID                                 : avc1\r\nCodec ID/Info                            : Advanced Video Coding\r\nDuration                                 : 1h 34mn\r\nBit rate                                 : 1 197 Kbps\r\nWidth                                    : 720 pixels\r\nHeight                                   : 404 pixels\r\nDisplay aspect ratio                     : 16:9\r\nFrame rate mode                          : Constant\r\nFrame rate                               : 29.970 (30000/1001) fps\r\nColor space                              : YUV\r\nChroma subsampling                       : 4:2:0\r\nBit depth                                : 8 bits\r\nScan type                                : Progressive\r\nBits/(Pixel*Frame)                       : 0.137\r\nStream size                              : 811 MiB (90%)\r\n\r\nAudio\r\nID                                       : 2\r\nFormat                                   : AAC\r\nFormat/Info                              : Advanced Audio Codec\r\nFormat profile                           : LC\r\nCodec ID                                 : 40\r\nDuration                                 : 1h 34mn\r\nBit rate mode                            : Constant\r\nBit rate                                 : 128 Kbps\r\nChannel(s)                               : 2 channels\r\nChannel positions                        : Front: L R\r\nSampling rate                            : 44.1 KHz\r\nFrame rate                               : 43.066 fps (1024 spf)\r\nCompression mode                         : Lossy\r\nStream size                              : 86.8 MiB (10%)\r\nDefault                                  : Yes\r\nAlternate group                          : 1","torrent":{"xt":"urn:btih:029058f2bede66eedea78c599ca64c95fa05a393","amp;dn":"Space+Station+76%282014%29MPEG-4%5BDaScubaDude%5D","amp;tr":["udp%3A%2F%2Ftracker.leechers-paradise.org%3A6969","udp%3A%2F%2Fzer0day.ch%3A1337","udp%3A%2F%2Fopen.demonii.com%3A1337","udp%3A%2F%2Ftracker.coppersurfer.tk%3A6969","udp%3A%2F%2Fexodus.desync.com%3A6969"],"infoHash":"029058f2bede66eedea78c599ca64c95fa05a393","infoHashBuffer":{"type":"Buffer","data":[2,144,88,242,190,222,102,238,222,167,140,89,156,166,76,149,250,5,163,147]},"announce":[],"urlList":[]}}